{
	"asset":{
		"generator":"Khronos glTF Blender I/O v4.0.44",
		"version":"2.0"
	},
	"scene":0,
	"scenes":[
		{
			"name":"Scene",
			"nodes":[
				0,
				1,
				2
			]
		}
	],
	"nodes":[
		{
			"mesh":0,
			"name":"box",
			"scale":[
				0.19999998807907104,
				0.05999999865889549,
				0.14999999105930328
			]
		},
		{
			"mesh":1,
			"name":"box tutup",
			"rotation":[
				-1,
				0,
				0,
				1.6292068494294654e-07
			],
			"scale":[
				0.2040800154209137,
				0.01249999925494194,
				0.15407603979110718
			],
			"translation":[
				0,
				0.05999999865889549,
				0
			]
		},
		{
			"mesh":2,
			"name":"kertas",
			"scale":[
				0.148499995470047,
				1,
				0.10499999672174454
			],
			"translation":[
				0.014521479606628418,
				-0.043233416974544525,
				0.005725793540477753
			]
		}
	],
	"materials":[
		{
			"doubleSided":true,
			"name":"Material.002",
			"pbrMetallicRoughness":{
				"baseColorFactor":[
					0.0991155132651329,
					0.15496960282325745,
					0.8000000715255737,
					1
				],
				"metallicFactor":0,
				"roughnessFactor":0.5
			}
		},
		{
			"doubleSided":true,
			"name":"Material.001",
			"pbrMetallicRoughness":{
				"baseColorTexture":{
					"index":0
				},
				"metallicFactor":0,
				"roughnessFactor":0.5
			}
		}
	],
	"meshes":[
		{
			"name":"Cube",
			"primitives":[
				{
					"attributes":{
						"POSITION":0,
						"NORMAL":1,
						"TEXCOORD_0":2
					},
					"indices":3,
					"material":0
				}
			]
		},
		{
			"name":"Cube.004",
			"primitives":[
				{
					"attributes":{
						"POSITION":4,
						"NORMAL":5,
						"TEXCOORD_0":6
					},
					"indices":3,
					"material":0
				}
			]
		},
		{
			"name":"Plane",
			"primitives":[
				{
					"attributes":{
						"POSITION":7,
						"NORMAL":8,
						"TEXCOORD_0":9
					},
					"indices":10,
					"material":1
				}
			]
		}
	],
	"textures":[
		{
			"sampler":0,
			"source":0
		}
	],
	"images":[
		{
			"mimeType":"image/jpeg",
			"name":"mat",
			"uri":"mat.jpg"
		}
	],
	"accessors":[
		{
			"bufferView":0,
			"componentType":5126,
			"count":771,
			"max":[
				1.0000001192092896,
				1.1742554903030396,
				1
			],
			"min":[
				-1.0000001192092896,
				-0.8257445693016052,
				-1
			],
			"type":"VEC3"
		},
		{
			"bufferView":1,
			"componentType":5126,
			"count":771,
			"type":"VEC3"
		},
		{
			"bufferView":2,
			"componentType":5126,
			"count":771,
			"type":"VEC2"
		},
		{
			"bufferView":3,
			"componentType":5123,
			"count":1140,
			"type":"SCALAR"
		},
		{
			"bufferView":4,
			"componentType":5126,
			"count":771,
			"max":[
				1.0000001192092896,
				1,
				1
			],
			"min":[
				-1.0000001192092896,
				-1.1172207593917847,
				-1
			],
			"type":"VEC3"
		},
		{
			"bufferView":5,
			"componentType":5126,
			"count":771,
			"type":"VEC3"
		},
		{
			"bufferView":6,
			"componentType":5126,
			"count":771,
			"type":"VEC2"
		},
		{
			"bufferView":7,
			"componentType":5126,
			"count":4,
			"max":[
				1,
				0,
				1
			],
			"min":[
				-1,
				0,
				-1
			],
			"type":"VEC3"
		},
		{
			"bufferView":8,
			"componentType":5126,
			"count":4,
			"type":"VEC3"
		},
		{
			"bufferView":9,
			"componentType":5126,
			"count":4,
			"type":"VEC2"
		},
		{
			"bufferView":10,
			"componentType":5123,
			"count":6,
			"type":"SCALAR"
		}
	],
	"bufferViews":[
		{
			"buffer":0,
			"byteLength":9252,
			"byteOffset":0,
			"target":34962
		},
		{
			"buffer":0,
			"byteLength":9252,
			"byteOffset":9252,
			"target":34962
		},
		{
			"buffer":0,
			"byteLength":6168,
			"byteOffset":18504,
			"target":34962
		},
		{
			"buffer":0,
			"byteLength":2280,
			"byteOffset":24672,
			"target":34963
		},
		{
			"buffer":0,
			"byteLength":9252,
			"byteOffset":26952,
			"target":34962
		},
		{
			"buffer":0,
			"byteLength":9252,
			"byteOffset":36204,
			"target":34962
		},
		{
			"buffer":0,
			"byteLength":6168,
			"byteOffset":45456,
			"target":34962
		},
		{
			"buffer":0,
			"byteLength":48,
			"byteOffset":51624,
			"target":34962
		},
		{
			"buffer":0,
			"byteLength":48,
			"byteOffset":51672,
			"target":34962
		},
		{
			"buffer":0,
			"byteLength":32,
			"byteOffset":51720,
			"target":34962
		},
		{
			"buffer":0,
			"byteLength":12,
			"byteOffset":51752,
			"target":34963
		}
	],
	"samplers":[
		{
			"magFilter":9729,
			"minFilter":9987
		}
	],
	"buffers":[
		{
			"byteLength":51764,
			"uri":"mod.bin"
		}
	]
}
